<mxfile host="app.diagrams.net" modified="2023-12-17T04:48:04.911Z" agent="Mozilla/5.0 (Windows NT 10.0; Win64; x64) AppleWebKit/537.36 (KHTML, like Gecko) Chrome/120.0.0.0 Safari/537.36" etag="m3gLPRYSUVXjHUCfaGew" version="22.1.11" type="github">
  <diagram name="Page-1" id="jW6l3vRBxwSZDtVe6Tkr">
    <mxGraphModel dx="1050" dy="530" grid="1" gridSize="16" guides="1" tooltips="1" connect="1" arrows="1" fold="1" page="1" pageScale="1" pageWidth="827" pageHeight="1169" math="0" shadow="0">
      <root>
        <mxCell id="0" />
        <mxCell id="1" parent="0" />
        <mxCell id="f2xoKJOvEJa5iyCf3bkf-11" value="accountscountry" style="shape=table;startSize=30;container=1;collapsible=1;childLayout=tableLayout;fixedRows=1;rowLines=0;fontStyle=1;align=center;resizeLast=1;html=1;fontFamily=Helvetica;fontSize=12;verticalAlign=middle;horizontal=1;" parent="1" vertex="1">
          <mxGeometry x="64" y="64" width="180" height="190" as="geometry" />
        </mxCell>
        <mxCell id="f2xoKJOvEJa5iyCf3bkf-12" value="" style="shape=tableRow;horizontal=1;startSize=0;swimlaneHead=0;swimlaneBody=0;fillColor=none;collapsible=0;dropTarget=0;points=[[0,0.5],[1,0.5]];portConstraint=eastwest;top=0;left=0;right=0;bottom=1;fontFamily=Helvetica;fontSize=12;verticalAlign=middle;align=center;fontStyle=0" parent="f2xoKJOvEJa5iyCf3bkf-11" vertex="1">
          <mxGeometry y="30" width="180" height="30" as="geometry" />
        </mxCell>
        <mxCell id="f2xoKJOvEJa5iyCf3bkf-13" value="PK" style="shape=partialRectangle;connectable=0;fillColor=none;top=0;left=0;bottom=0;right=0;fontStyle=1;overflow=hidden;whiteSpace=wrap;html=1;fontFamily=Helvetica;fontSize=12;verticalAlign=middle;align=center;horizontal=1;" parent="f2xoKJOvEJa5iyCf3bkf-12" vertex="1">
          <mxGeometry width="30" height="30" as="geometry">
            <mxRectangle width="30" height="30" as="alternateBounds" />
          </mxGeometry>
        </mxCell>
        <mxCell id="f2xoKJOvEJa5iyCf3bkf-14" value="code" style="shape=partialRectangle;connectable=0;fillColor=none;top=0;left=0;bottom=0;right=0;align=center;spacingLeft=6;fontStyle=5;overflow=hidden;whiteSpace=wrap;html=1;fontFamily=Helvetica;fontSize=12;verticalAlign=middle;horizontal=1;" parent="f2xoKJOvEJa5iyCf3bkf-12" vertex="1">
          <mxGeometry x="30" width="150" height="30" as="geometry">
            <mxRectangle width="150" height="30" as="alternateBounds" />
          </mxGeometry>
        </mxCell>
        <mxCell id="f2xoKJOvEJa5iyCf3bkf-15" value="" style="shape=tableRow;horizontal=1;startSize=0;swimlaneHead=0;swimlaneBody=0;fillColor=none;collapsible=0;dropTarget=0;points=[[0,0.5],[1,0.5]];portConstraint=eastwest;top=0;left=0;right=0;bottom=0;fontFamily=Helvetica;fontSize=12;verticalAlign=middle;align=center;fontStyle=0" parent="f2xoKJOvEJa5iyCf3bkf-11" vertex="1">
          <mxGeometry y="60" width="180" height="30" as="geometry" />
        </mxCell>
        <mxCell id="f2xoKJOvEJa5iyCf3bkf-16" value="" style="shape=partialRectangle;connectable=0;fillColor=none;top=0;left=0;bottom=0;right=0;editable=1;overflow=hidden;whiteSpace=wrap;html=1;fontFamily=Helvetica;fontSize=12;verticalAlign=middle;align=center;horizontal=1;fontStyle=0" parent="f2xoKJOvEJa5iyCf3bkf-15" vertex="1">
          <mxGeometry width="30" height="30" as="geometry">
            <mxRectangle width="30" height="30" as="alternateBounds" />
          </mxGeometry>
        </mxCell>
        <mxCell id="f2xoKJOvEJa5iyCf3bkf-17" value="short_name" style="shape=partialRectangle;connectable=0;fillColor=none;top=0;left=0;bottom=0;right=0;align=center;spacingLeft=6;overflow=hidden;whiteSpace=wrap;html=1;fontFamily=Helvetica;fontSize=12;verticalAlign=middle;horizontal=1;fontStyle=0" parent="f2xoKJOvEJa5iyCf3bkf-15" vertex="1">
          <mxGeometry x="30" width="150" height="30" as="geometry">
            <mxRectangle width="150" height="30" as="alternateBounds" />
          </mxGeometry>
        </mxCell>
        <mxCell id="f2xoKJOvEJa5iyCf3bkf-18" value="" style="shape=tableRow;horizontal=1;startSize=0;swimlaneHead=0;swimlaneBody=0;fillColor=none;collapsible=0;dropTarget=0;points=[[0,0.5],[1,0.5]];portConstraint=eastwest;top=0;left=0;right=0;bottom=0;fontFamily=Helvetica;fontSize=12;verticalAlign=middle;align=center;fontStyle=0" parent="f2xoKJOvEJa5iyCf3bkf-11" vertex="1">
          <mxGeometry y="90" width="180" height="30" as="geometry" />
        </mxCell>
        <mxCell id="f2xoKJOvEJa5iyCf3bkf-19" value="" style="shape=partialRectangle;connectable=0;fillColor=none;top=0;left=0;bottom=0;right=0;editable=1;overflow=hidden;whiteSpace=wrap;html=1;fontFamily=Helvetica;fontSize=12;verticalAlign=middle;align=center;horizontal=1;fontStyle=0" parent="f2xoKJOvEJa5iyCf3bkf-18" vertex="1">
          <mxGeometry width="30" height="30" as="geometry">
            <mxRectangle width="30" height="30" as="alternateBounds" />
          </mxGeometry>
        </mxCell>
        <mxCell id="f2xoKJOvEJa5iyCf3bkf-20" value="long_name" style="shape=partialRectangle;connectable=0;fillColor=none;top=0;left=0;bottom=0;right=0;align=center;spacingLeft=6;overflow=hidden;whiteSpace=wrap;html=1;fontFamily=Helvetica;fontSize=12;verticalAlign=middle;horizontal=1;fontStyle=0" parent="f2xoKJOvEJa5iyCf3bkf-18" vertex="1">
          <mxGeometry x="30" width="150" height="30" as="geometry">
            <mxRectangle width="150" height="30" as="alternateBounds" />
          </mxGeometry>
        </mxCell>
        <mxCell id="f2xoKJOvEJa5iyCf3bkf-76" value="" style="shape=tableRow;horizontal=1;startSize=0;swimlaneHead=0;swimlaneBody=0;fillColor=none;collapsible=0;dropTarget=0;points=[[0,0.5],[1,0.5]];portConstraint=eastwest;top=0;left=0;right=0;bottom=0;fontFamily=Helvetica;fontSize=12;verticalAlign=middle;align=center;fontStyle=0" parent="f2xoKJOvEJa5iyCf3bkf-11" vertex="1">
          <mxGeometry y="120" width="180" height="30" as="geometry" />
        </mxCell>
        <mxCell id="f2xoKJOvEJa5iyCf3bkf-77" value="" style="shape=partialRectangle;connectable=0;fillColor=none;top=0;left=0;bottom=0;right=0;editable=1;overflow=hidden;whiteSpace=wrap;html=1;fontFamily=Helvetica;fontSize=12;verticalAlign=middle;align=center;horizontal=1;fontStyle=0" parent="f2xoKJOvEJa5iyCf3bkf-76" vertex="1">
          <mxGeometry width="30" height="30" as="geometry">
            <mxRectangle width="30" height="30" as="alternateBounds" />
          </mxGeometry>
        </mxCell>
        <mxCell id="f2xoKJOvEJa5iyCf3bkf-78" value="currency_unit" style="shape=partialRectangle;connectable=0;fillColor=none;top=0;left=0;bottom=0;right=0;align=center;spacingLeft=6;overflow=hidden;whiteSpace=wrap;html=1;fontFamily=Helvetica;fontSize=12;verticalAlign=middle;horizontal=1;fontStyle=0" parent="f2xoKJOvEJa5iyCf3bkf-76" vertex="1">
          <mxGeometry x="30" width="150" height="30" as="geometry">
            <mxRectangle width="150" height="30" as="alternateBounds" />
          </mxGeometry>
        </mxCell>
        <mxCell id="f2xoKJOvEJa5iyCf3bkf-21" value="" style="shape=tableRow;horizontal=1;startSize=0;swimlaneHead=0;swimlaneBody=0;fillColor=none;collapsible=0;dropTarget=0;points=[[0,0.5],[1,0.5]];portConstraint=eastwest;top=0;left=0;right=0;bottom=0;fontFamily=Helvetica;fontSize=12;verticalAlign=middle;align=center;fontStyle=0" parent="f2xoKJOvEJa5iyCf3bkf-11" vertex="1">
          <mxGeometry y="150" width="180" height="40" as="geometry" />
        </mxCell>
        <mxCell id="f2xoKJOvEJa5iyCf3bkf-22" value="" style="shape=partialRectangle;connectable=0;fillColor=none;top=0;left=0;bottom=0;right=0;editable=1;overflow=hidden;whiteSpace=wrap;html=1;fontFamily=Helvetica;fontSize=12;verticalAlign=middle;align=center;horizontal=1;fontStyle=0" parent="f2xoKJOvEJa5iyCf3bkf-21" vertex="1">
          <mxGeometry width="30" height="40" as="geometry">
            <mxRectangle width="30" height="40" as="alternateBounds" />
          </mxGeometry>
        </mxCell>
        <mxCell id="f2xoKJOvEJa5iyCf3bkf-23" value="table_name" style="shape=partialRectangle;connectable=0;fillColor=none;top=0;left=0;bottom=0;right=0;align=center;spacingLeft=6;overflow=hidden;whiteSpace=wrap;html=1;fontFamily=Helvetica;fontSize=12;verticalAlign=middle;horizontal=1;fontStyle=0" parent="f2xoKJOvEJa5iyCf3bkf-21" vertex="1">
          <mxGeometry x="30" width="150" height="40" as="geometry">
            <mxRectangle width="150" height="40" as="alternateBounds" />
          </mxGeometry>
        </mxCell>
        <mxCell id="f2xoKJOvEJa5iyCf3bkf-37" value="accountsdata" style="shape=table;startSize=30;container=1;collapsible=1;childLayout=tableLayout;fixedRows=1;rowLines=0;fontStyle=1;align=center;resizeLast=1;html=1;fontFamily=Helvetica;fontSize=12;verticalAlign=middle;horizontal=1;" parent="1" vertex="1">
          <mxGeometry x="304" y="50" width="180" height="400" as="geometry" />
        </mxCell>
        <mxCell id="f2xoKJOvEJa5iyCf3bkf-38" value="" style="shape=tableRow;horizontal=1;startSize=0;swimlaneHead=0;swimlaneBody=0;fillColor=none;collapsible=0;dropTarget=0;points=[[0,0.5],[1,0.5]];portConstraint=eastwest;top=0;left=0;right=0;bottom=1;fontFamily=Helvetica;fontSize=12;verticalAlign=middle;align=center;fontStyle=0" parent="f2xoKJOvEJa5iyCf3bkf-37" vertex="1">
          <mxGeometry y="30" width="180" height="30" as="geometry" />
        </mxCell>
        <mxCell id="f2xoKJOvEJa5iyCf3bkf-39" value="PK" style="shape=partialRectangle;connectable=0;fillColor=none;top=0;left=0;bottom=0;right=0;fontStyle=1;overflow=hidden;whiteSpace=wrap;html=1;fontFamily=Helvetica;fontSize=12;verticalAlign=middle;align=center;horizontal=1;" parent="f2xoKJOvEJa5iyCf3bkf-38" vertex="1">
          <mxGeometry width="30" height="30" as="geometry">
            <mxRectangle width="30" height="30" as="alternateBounds" />
          </mxGeometry>
        </mxCell>
        <mxCell id="f2xoKJOvEJa5iyCf3bkf-40" value="" style="shape=partialRectangle;connectable=0;fillColor=none;top=0;left=0;bottom=0;right=0;align=center;spacingLeft=6;fontStyle=5;overflow=hidden;whiteSpace=wrap;html=1;fontFamily=Helvetica;fontSize=12;verticalAlign=middle;horizontal=1;" parent="f2xoKJOvEJa5iyCf3bkf-38" vertex="1">
          <mxGeometry x="30" width="150" height="30" as="geometry">
            <mxRectangle width="150" height="30" as="alternateBounds" />
          </mxGeometry>
        </mxCell>
        <mxCell id="f2xoKJOvEJa5iyCf3bkf-41" value="" style="shape=tableRow;horizontal=1;startSize=0;swimlaneHead=0;swimlaneBody=0;fillColor=none;collapsible=0;dropTarget=0;points=[[0,0.5],[1,0.5]];portConstraint=eastwest;top=0;left=0;right=0;bottom=0;fontFamily=Helvetica;fontSize=12;verticalAlign=middle;align=center;fontStyle=0" parent="f2xoKJOvEJa5iyCf3bkf-37" vertex="1">
          <mxGeometry y="60" width="180" height="36" as="geometry" />
        </mxCell>
        <mxCell id="f2xoKJOvEJa5iyCf3bkf-42" value="" style="shape=partialRectangle;connectable=0;fillColor=none;top=0;left=0;bottom=0;right=0;editable=1;overflow=hidden;whiteSpace=wrap;html=1;fontFamily=Helvetica;fontSize=12;verticalAlign=middle;align=center;horizontal=1;fontStyle=0" parent="f2xoKJOvEJa5iyCf3bkf-41" vertex="1">
          <mxGeometry width="30" height="36" as="geometry">
            <mxRectangle width="30" height="36" as="alternateBounds" />
          </mxGeometry>
        </mxCell>
        <mxCell id="f2xoKJOvEJa5iyCf3bkf-43" value="&lt;div style=&quot;font-size: 12px; line-height: 19px;&quot;&gt;&lt;span style=&quot;background-color: rgb(255, 255, 255); font-size: 12px;&quot;&gt;Country_Name&lt;/span&gt;&lt;/div&gt;" style="shape=partialRectangle;connectable=0;fillColor=none;top=0;left=0;bottom=0;right=0;align=center;spacingLeft=6;overflow=hidden;whiteSpace=wrap;html=1;fontFamily=Helvetica;fontSize=12;verticalAlign=middle;horizontal=1;fontStyle=0" parent="f2xoKJOvEJa5iyCf3bkf-41" vertex="1">
          <mxGeometry x="30" width="150" height="36" as="geometry">
            <mxRectangle width="150" height="36" as="alternateBounds" />
          </mxGeometry>
        </mxCell>
        <mxCell id="f2xoKJOvEJa5iyCf3bkf-44" value="" style="shape=tableRow;horizontal=1;startSize=0;swimlaneHead=0;swimlaneBody=0;fillColor=none;collapsible=0;dropTarget=0;points=[[0,0.5],[1,0.5]];portConstraint=eastwest;top=0;left=0;right=0;bottom=0;fontFamily=Helvetica;fontSize=12;verticalAlign=middle;align=center;fontStyle=0" parent="f2xoKJOvEJa5iyCf3bkf-37" vertex="1">
          <mxGeometry y="96" width="180" height="30" as="geometry" />
        </mxCell>
        <mxCell id="f2xoKJOvEJa5iyCf3bkf-45" value="" style="shape=partialRectangle;connectable=0;fillColor=none;top=0;left=0;bottom=0;right=0;editable=1;overflow=hidden;whiteSpace=wrap;html=1;fontFamily=Helvetica;fontSize=12;verticalAlign=middle;align=center;horizontal=1;fontStyle=0" parent="f2xoKJOvEJa5iyCf3bkf-44" vertex="1">
          <mxGeometry width="30" height="30" as="geometry">
            <mxRectangle width="30" height="30" as="alternateBounds" />
          </mxGeometry>
        </mxCell>
        <mxCell id="f2xoKJOvEJa5iyCf3bkf-46" value="&lt;div style=&quot;font-size: 12px; line-height: 19px;&quot;&gt;&lt;span style=&quot;background-color: rgb(255, 255, 255); font-size: 12px;&quot;&gt;Country_Code&lt;/span&gt;&lt;/div&gt;" style="shape=partialRectangle;connectable=0;fillColor=none;top=0;left=0;bottom=0;right=0;align=center;spacingLeft=6;overflow=hidden;whiteSpace=wrap;html=1;fontFamily=Helvetica;fontSize=12;verticalAlign=middle;horizontal=1;fontStyle=0" parent="f2xoKJOvEJa5iyCf3bkf-44" vertex="1">
          <mxGeometry x="30" width="150" height="30" as="geometry">
            <mxRectangle width="150" height="30" as="alternateBounds" />
          </mxGeometry>
        </mxCell>
        <mxCell id="f2xoKJOvEJa5iyCf3bkf-47" value="" style="shape=tableRow;horizontal=1;startSize=0;swimlaneHead=0;swimlaneBody=0;fillColor=none;collapsible=0;dropTarget=0;points=[[0,0.5],[1,0.5]];portConstraint=eastwest;top=0;left=0;right=0;bottom=0;strokeWidth=0;fontFamily=Helvetica;fontSize=12;verticalAlign=middle;align=center;fontStyle=0" parent="f2xoKJOvEJa5iyCf3bkf-37" vertex="1">
          <mxGeometry y="126" width="180" height="34" as="geometry" />
        </mxCell>
        <mxCell id="f2xoKJOvEJa5iyCf3bkf-48" value="" style="shape=partialRectangle;connectable=0;fillColor=none;top=0;left=0;bottom=0;right=0;editable=1;overflow=hidden;whiteSpace=wrap;html=1;fontFamily=Helvetica;fontSize=12;verticalAlign=middle;align=center;horizontal=1;fontStyle=0" parent="f2xoKJOvEJa5iyCf3bkf-47" vertex="1">
          <mxGeometry width="30" height="34" as="geometry">
            <mxRectangle width="30" height="34" as="alternateBounds" />
          </mxGeometry>
        </mxCell>
        <mxCell id="f2xoKJOvEJa5iyCf3bkf-49" value="&lt;font color=&quot;#030303&quot; style=&quot;font-size: 12px;&quot;&gt;&lt;div style=&quot;font-size: 12px; line-height: 19px; background-color: rgb(255, 250, 250);&quot;&gt;Series_Name&lt;/div&gt;&lt;/font&gt;" style="shape=partialRectangle;connectable=0;fillColor=none;top=0;left=0;bottom=0;right=0;align=center;spacingLeft=6;overflow=hidden;whiteSpace=wrap;html=1;fontFamily=Helvetica;fontSize=12;verticalAlign=middle;horizontal=1;fontStyle=0" parent="f2xoKJOvEJa5iyCf3bkf-47" vertex="1">
          <mxGeometry x="30" width="150" height="34" as="geometry">
            <mxRectangle width="150" height="34" as="alternateBounds" />
          </mxGeometry>
        </mxCell>
        <mxCell id="f2xoKJOvEJa5iyCf3bkf-90" style="shape=tableRow;horizontal=1;startSize=0;swimlaneHead=0;swimlaneBody=0;fillColor=none;collapsible=0;dropTarget=0;points=[[0,0.5],[1,0.5]];portConstraint=eastwest;top=0;left=0;right=0;bottom=0;fontFamily=Helvetica;fontSize=12;verticalAlign=middle;align=center;fontStyle=0" parent="f2xoKJOvEJa5iyCf3bkf-37" vertex="1">
          <mxGeometry y="160" width="180" height="26" as="geometry" />
        </mxCell>
        <mxCell id="f2xoKJOvEJa5iyCf3bkf-91" style="shape=partialRectangle;connectable=0;fillColor=none;top=0;left=0;bottom=0;right=0;editable=1;overflow=hidden;whiteSpace=wrap;html=1;fontFamily=Helvetica;fontSize=12;verticalAlign=middle;align=center;horizontal=1;fontStyle=0" parent="f2xoKJOvEJa5iyCf3bkf-90" vertex="1">
          <mxGeometry width="30" height="26" as="geometry">
            <mxRectangle width="30" height="26" as="alternateBounds" />
          </mxGeometry>
        </mxCell>
        <mxCell id="f2xoKJOvEJa5iyCf3bkf-92" style="shape=partialRectangle;connectable=0;fillColor=none;top=0;left=0;bottom=0;right=0;align=center;spacingLeft=6;overflow=hidden;whiteSpace=wrap;html=1;fontFamily=Helvetica;fontSize=12;verticalAlign=middle;horizontal=1;fontStyle=0" parent="f2xoKJOvEJa5iyCf3bkf-90" vertex="1">
          <mxGeometry x="30" width="150" height="26" as="geometry">
            <mxRectangle width="150" height="26" as="alternateBounds" />
          </mxGeometry>
        </mxCell>
        <mxCell id="f2xoKJOvEJa5iyCf3bkf-93" style="shape=tableRow;horizontal=1;startSize=0;swimlaneHead=0;swimlaneBody=0;fillColor=none;collapsible=0;dropTarget=0;points=[[0,0.5],[1,0.5]];portConstraint=eastwest;top=0;left=0;right=0;bottom=0;fontFamily=Helvetica;fontSize=12;verticalAlign=middle;align=center;fontStyle=0" parent="f2xoKJOvEJa5iyCf3bkf-37" vertex="1">
          <mxGeometry y="186" width="180" height="30" as="geometry" />
        </mxCell>
        <mxCell id="f2xoKJOvEJa5iyCf3bkf-94" style="shape=partialRectangle;connectable=0;fillColor=none;top=0;left=0;bottom=0;right=0;editable=1;overflow=hidden;whiteSpace=wrap;html=1;fontFamily=Helvetica;fontSize=12;verticalAlign=middle;align=center;horizontal=1;fontStyle=0" parent="f2xoKJOvEJa5iyCf3bkf-93" vertex="1">
          <mxGeometry width="30" height="30" as="geometry">
            <mxRectangle width="30" height="30" as="alternateBounds" />
          </mxGeometry>
        </mxCell>
        <mxCell id="f2xoKJOvEJa5iyCf3bkf-95" style="shape=partialRectangle;connectable=0;fillColor=none;top=0;left=0;bottom=0;right=0;align=center;spacingLeft=6;overflow=hidden;whiteSpace=wrap;html=1;fontFamily=Helvetica;fontSize=12;verticalAlign=middle;horizontal=1;fontStyle=0" parent="f2xoKJOvEJa5iyCf3bkf-93" vertex="1">
          <mxGeometry x="30" width="150" height="30" as="geometry">
            <mxRectangle width="150" height="30" as="alternateBounds" />
          </mxGeometry>
        </mxCell>
        <mxCell id="f2xoKJOvEJa5iyCf3bkf-96" style="shape=tableRow;horizontal=1;startSize=0;swimlaneHead=0;swimlaneBody=0;fillColor=none;collapsible=0;dropTarget=0;points=[[0,0.5],[1,0.5]];portConstraint=eastwest;top=0;left=0;right=0;bottom=0;fontFamily=Helvetica;fontSize=12;verticalAlign=middle;align=center;fontStyle=0" parent="f2xoKJOvEJa5iyCf3bkf-37" vertex="1">
          <mxGeometry y="216" width="180" height="30" as="geometry" />
        </mxCell>
        <mxCell id="f2xoKJOvEJa5iyCf3bkf-97" style="shape=partialRectangle;connectable=0;fillColor=none;top=0;left=0;bottom=0;right=0;editable=1;overflow=hidden;whiteSpace=wrap;html=1;fontFamily=Helvetica;fontSize=12;verticalAlign=middle;align=center;horizontal=1;fontStyle=0" parent="f2xoKJOvEJa5iyCf3bkf-96" vertex="1">
          <mxGeometry width="30" height="30" as="geometry">
            <mxRectangle width="30" height="30" as="alternateBounds" />
          </mxGeometry>
        </mxCell>
        <mxCell id="f2xoKJOvEJa5iyCf3bkf-98" style="shape=partialRectangle;connectable=0;fillColor=none;top=0;left=0;bottom=0;right=0;align=center;spacingLeft=6;overflow=hidden;whiteSpace=wrap;html=1;fontFamily=Helvetica;fontSize=12;verticalAlign=middle;horizontal=1;fontStyle=0" parent="f2xoKJOvEJa5iyCf3bkf-96" vertex="1">
          <mxGeometry x="30" width="150" height="30" as="geometry">
            <mxRectangle width="150" height="30" as="alternateBounds" />
          </mxGeometry>
        </mxCell>
        <mxCell id="f2xoKJOvEJa5iyCf3bkf-99" style="shape=tableRow;horizontal=1;startSize=0;swimlaneHead=0;swimlaneBody=0;fillColor=none;collapsible=0;dropTarget=0;points=[[0,0.5],[1,0.5]];portConstraint=eastwest;top=0;left=0;right=0;bottom=0;fontFamily=Helvetica;fontSize=12;verticalAlign=middle;align=center;fontStyle=0" parent="f2xoKJOvEJa5iyCf3bkf-37" vertex="1">
          <mxGeometry y="246" width="180" height="30" as="geometry" />
        </mxCell>
        <mxCell id="f2xoKJOvEJa5iyCf3bkf-100" style="shape=partialRectangle;connectable=0;fillColor=none;top=0;left=0;bottom=0;right=0;editable=1;overflow=hidden;whiteSpace=wrap;html=1;fontFamily=Helvetica;fontSize=12;verticalAlign=middle;align=center;horizontal=1;fontStyle=0" parent="f2xoKJOvEJa5iyCf3bkf-99" vertex="1">
          <mxGeometry width="30" height="30" as="geometry">
            <mxRectangle width="30" height="30" as="alternateBounds" />
          </mxGeometry>
        </mxCell>
        <mxCell id="f2xoKJOvEJa5iyCf3bkf-101" style="shape=partialRectangle;connectable=0;fillColor=none;top=0;left=0;bottom=0;right=0;align=center;spacingLeft=6;overflow=hidden;whiteSpace=wrap;html=1;fontFamily=Helvetica;fontSize=12;verticalAlign=middle;horizontal=1;fontStyle=0" parent="f2xoKJOvEJa5iyCf3bkf-99" vertex="1">
          <mxGeometry x="30" width="150" height="30" as="geometry">
            <mxRectangle width="150" height="30" as="alternateBounds" />
          </mxGeometry>
        </mxCell>
        <mxCell id="f2xoKJOvEJa5iyCf3bkf-102" style="shape=tableRow;horizontal=1;startSize=0;swimlaneHead=0;swimlaneBody=0;fillColor=none;collapsible=0;dropTarget=0;points=[[0,0.5],[1,0.5]];portConstraint=eastwest;top=0;left=0;right=0;bottom=0;fontFamily=Helvetica;fontSize=12;verticalAlign=middle;align=center;fontStyle=0" parent="f2xoKJOvEJa5iyCf3bkf-37" vertex="1">
          <mxGeometry y="276" width="180" height="30" as="geometry" />
        </mxCell>
        <mxCell id="f2xoKJOvEJa5iyCf3bkf-103" style="shape=partialRectangle;connectable=0;fillColor=none;top=0;left=0;bottom=0;right=0;editable=1;overflow=hidden;whiteSpace=wrap;html=1;fontFamily=Helvetica;fontSize=12;verticalAlign=middle;align=center;horizontal=1;fontStyle=0" parent="f2xoKJOvEJa5iyCf3bkf-102" vertex="1">
          <mxGeometry width="30" height="30" as="geometry">
            <mxRectangle width="30" height="30" as="alternateBounds" />
          </mxGeometry>
        </mxCell>
        <mxCell id="f2xoKJOvEJa5iyCf3bkf-104" style="shape=partialRectangle;connectable=0;fillColor=none;top=0;left=0;bottom=0;right=0;align=center;spacingLeft=6;overflow=hidden;whiteSpace=wrap;html=1;fontFamily=Helvetica;fontSize=12;verticalAlign=middle;horizontal=1;fontStyle=0" parent="f2xoKJOvEJa5iyCf3bkf-102" vertex="1">
          <mxGeometry x="30" width="150" height="30" as="geometry">
            <mxRectangle width="150" height="30" as="alternateBounds" />
          </mxGeometry>
        </mxCell>
        <mxCell id="f2xoKJOvEJa5iyCf3bkf-105" style="shape=tableRow;horizontal=1;startSize=0;swimlaneHead=0;swimlaneBody=0;fillColor=none;collapsible=0;dropTarget=0;points=[[0,0.5],[1,0.5]];portConstraint=eastwest;top=0;left=0;right=0;bottom=0;fontFamily=Helvetica;fontSize=12;verticalAlign=middle;align=center;fontStyle=0" parent="f2xoKJOvEJa5iyCf3bkf-37" vertex="1">
          <mxGeometry y="306" width="180" height="30" as="geometry" />
        </mxCell>
        <mxCell id="f2xoKJOvEJa5iyCf3bkf-106" style="shape=partialRectangle;connectable=0;fillColor=none;top=0;left=0;bottom=0;right=0;editable=1;overflow=hidden;whiteSpace=wrap;html=1;fontFamily=Helvetica;fontSize=12;verticalAlign=middle;align=center;horizontal=1;fontStyle=0" parent="f2xoKJOvEJa5iyCf3bkf-105" vertex="1">
          <mxGeometry width="30" height="30" as="geometry">
            <mxRectangle width="30" height="30" as="alternateBounds" />
          </mxGeometry>
        </mxCell>
        <mxCell id="f2xoKJOvEJa5iyCf3bkf-107" style="shape=partialRectangle;connectable=0;fillColor=none;top=0;left=0;bottom=0;right=0;align=center;spacingLeft=6;overflow=hidden;whiteSpace=wrap;html=1;fontFamily=Helvetica;fontSize=12;verticalAlign=middle;horizontal=1;fontStyle=0" parent="f2xoKJOvEJa5iyCf3bkf-105" vertex="1">
          <mxGeometry x="30" width="150" height="30" as="geometry">
            <mxRectangle width="150" height="30" as="alternateBounds" />
          </mxGeometry>
        </mxCell>
        <mxCell id="f2xoKJOvEJa5iyCf3bkf-115" style="shape=tableRow;horizontal=1;startSize=0;swimlaneHead=0;swimlaneBody=0;fillColor=none;collapsible=0;dropTarget=0;points=[[0,0.5],[1,0.5]];portConstraint=eastwest;top=0;left=0;right=0;bottom=0;fontFamily=Helvetica;fontSize=12;verticalAlign=middle;align=center;fontStyle=0" parent="f2xoKJOvEJa5iyCf3bkf-37" vertex="1">
          <mxGeometry y="336" width="180" height="30" as="geometry" />
        </mxCell>
        <mxCell id="f2xoKJOvEJa5iyCf3bkf-116" style="shape=partialRectangle;connectable=0;fillColor=none;top=0;left=0;bottom=0;right=0;editable=1;overflow=hidden;whiteSpace=wrap;html=1;fontFamily=Helvetica;fontSize=12;verticalAlign=middle;align=center;horizontal=1;fontStyle=0" parent="f2xoKJOvEJa5iyCf3bkf-115" vertex="1">
          <mxGeometry width="30" height="30" as="geometry">
            <mxRectangle width="30" height="30" as="alternateBounds" />
          </mxGeometry>
        </mxCell>
        <mxCell id="f2xoKJOvEJa5iyCf3bkf-117" style="shape=partialRectangle;connectable=0;fillColor=none;top=0;left=0;bottom=0;right=0;align=center;spacingLeft=6;overflow=hidden;whiteSpace=wrap;html=1;fontFamily=Helvetica;fontSize=12;verticalAlign=middle;horizontal=1;fontStyle=0" parent="f2xoKJOvEJa5iyCf3bkf-115" vertex="1">
          <mxGeometry x="30" width="150" height="30" as="geometry">
            <mxRectangle width="150" height="30" as="alternateBounds" />
          </mxGeometry>
        </mxCell>
        <mxCell id="f2xoKJOvEJa5iyCf3bkf-118" style="shape=tableRow;horizontal=1;startSize=0;swimlaneHead=0;swimlaneBody=0;fillColor=none;collapsible=0;dropTarget=0;points=[[0,0.5],[1,0.5]];portConstraint=eastwest;top=0;left=0;right=0;bottom=0;fontFamily=Helvetica;fontSize=12;verticalAlign=middle;align=center;fontStyle=0" parent="f2xoKJOvEJa5iyCf3bkf-37" vertex="1">
          <mxGeometry y="366" width="180" height="34" as="geometry" />
        </mxCell>
        <mxCell id="f2xoKJOvEJa5iyCf3bkf-119" style="shape=partialRectangle;connectable=0;fillColor=none;top=0;left=0;bottom=0;right=0;editable=1;overflow=hidden;whiteSpace=wrap;html=1;fontFamily=Helvetica;fontSize=12;verticalAlign=middle;align=center;horizontal=1;fontStyle=0" parent="f2xoKJOvEJa5iyCf3bkf-118" vertex="1">
          <mxGeometry width="30" height="34" as="geometry">
            <mxRectangle width="30" height="34" as="alternateBounds" />
          </mxGeometry>
        </mxCell>
        <mxCell id="f2xoKJOvEJa5iyCf3bkf-120" style="shape=partialRectangle;connectable=0;fillColor=none;top=0;left=0;bottom=0;right=0;align=center;spacingLeft=6;overflow=hidden;whiteSpace=wrap;html=1;fontFamily=Helvetica;fontSize=12;verticalAlign=middle;horizontal=1;fontStyle=0" parent="f2xoKJOvEJa5iyCf3bkf-118" vertex="1">
          <mxGeometry x="30" width="150" height="34" as="geometry">
            <mxRectangle width="150" height="34" as="alternateBounds" />
          </mxGeometry>
        </mxCell>
        <mxCell id="f2xoKJOvEJa5iyCf3bkf-63" value="accountSeries" style="shape=table;startSize=30;container=1;collapsible=1;childLayout=tableLayout;fixedRows=1;rowLines=0;fontStyle=1;align=center;resizeLast=1;html=1;fontFamily=Helvetica;fontSize=12;verticalAlign=middle;horizontal=1;" parent="1" vertex="1">
          <mxGeometry x="592" y="64" width="180" height="180" as="geometry" />
        </mxCell>
        <mxCell id="f2xoKJOvEJa5iyCf3bkf-64" value="" style="shape=tableRow;horizontal=1;startSize=0;swimlaneHead=0;swimlaneBody=0;fillColor=none;collapsible=0;dropTarget=0;points=[[0,0.5],[1,0.5]];portConstraint=eastwest;top=0;left=0;right=0;bottom=1;fontFamily=Helvetica;fontSize=12;verticalAlign=middle;align=center;fontStyle=0" parent="f2xoKJOvEJa5iyCf3bkf-63" vertex="1">
          <mxGeometry y="30" width="180" height="30" as="geometry" />
        </mxCell>
        <mxCell id="f2xoKJOvEJa5iyCf3bkf-65" value="PK" style="shape=partialRectangle;connectable=0;fillColor=none;top=0;left=0;bottom=0;right=0;fontStyle=1;overflow=hidden;whiteSpace=wrap;html=1;fontFamily=Helvetica;fontSize=12;verticalAlign=middle;align=center;horizontal=1;" parent="f2xoKJOvEJa5iyCf3bkf-64" vertex="1">
          <mxGeometry width="30" height="30" as="geometry">
            <mxRectangle width="30" height="30" as="alternateBounds" />
          </mxGeometry>
        </mxCell>
        <mxCell id="f2xoKJOvEJa5iyCf3bkf-66" value="" style="shape=partialRectangle;connectable=0;fillColor=none;top=0;left=0;bottom=0;right=0;align=center;spacingLeft=6;fontStyle=5;overflow=hidden;whiteSpace=wrap;html=1;fontFamily=Helvetica;fontSize=12;verticalAlign=middle;horizontal=1;" parent="f2xoKJOvEJa5iyCf3bkf-64" vertex="1">
          <mxGeometry x="30" width="150" height="30" as="geometry">
            <mxRectangle width="150" height="30" as="alternateBounds" />
          </mxGeometry>
        </mxCell>
        <mxCell id="f2xoKJOvEJa5iyCf3bkf-67" value="" style="shape=tableRow;horizontal=1;startSize=0;swimlaneHead=0;swimlaneBody=0;fillColor=none;collapsible=0;dropTarget=0;points=[[0,0.5],[1,0.5]];portConstraint=eastwest;top=0;left=0;right=0;bottom=0;fontFamily=Helvetica;fontSize=12;verticalAlign=middle;align=center;fontStyle=0" parent="f2xoKJOvEJa5iyCf3bkf-63" vertex="1">
          <mxGeometry y="60" width="180" height="30" as="geometry" />
        </mxCell>
        <mxCell id="f2xoKJOvEJa5iyCf3bkf-68" value="" style="shape=partialRectangle;connectable=0;fillColor=none;top=0;left=0;bottom=0;right=0;editable=1;overflow=hidden;whiteSpace=wrap;html=1;fontFamily=Helvetica;fontSize=12;verticalAlign=middle;align=center;horizontal=1;fontStyle=0" parent="f2xoKJOvEJa5iyCf3bkf-67" vertex="1">
          <mxGeometry width="30" height="30" as="geometry">
            <mxRectangle width="30" height="30" as="alternateBounds" />
          </mxGeometry>
        </mxCell>
        <mxCell id="f2xoKJOvEJa5iyCf3bkf-69" value="&lt;div style=&quot;font-size: 12px; line-height: 19px;&quot;&gt;&lt;span style=&quot;background-color: rgb(255, 255, 255); font-size: 12px;&quot;&gt;Code&lt;/span&gt;&lt;/div&gt;" style="shape=partialRectangle;connectable=0;fillColor=none;top=0;left=0;bottom=0;right=0;align=center;spacingLeft=6;overflow=hidden;whiteSpace=wrap;html=1;fontFamily=Helvetica;fontSize=12;verticalAlign=middle;horizontal=1;fontStyle=0" parent="f2xoKJOvEJa5iyCf3bkf-67" vertex="1">
          <mxGeometry x="30" width="150" height="30" as="geometry">
            <mxRectangle width="150" height="30" as="alternateBounds" />
          </mxGeometry>
        </mxCell>
        <mxCell id="f2xoKJOvEJa5iyCf3bkf-70" value="" style="shape=tableRow;horizontal=1;startSize=0;swimlaneHead=0;swimlaneBody=0;fillColor=none;collapsible=0;dropTarget=0;points=[[0,0.5],[1,0.5]];portConstraint=eastwest;top=0;left=0;right=0;bottom=0;fontFamily=Helvetica;fontSize=12;verticalAlign=middle;align=center;fontStyle=0" parent="f2xoKJOvEJa5iyCf3bkf-63" vertex="1">
          <mxGeometry y="90" width="180" height="30" as="geometry" />
        </mxCell>
        <mxCell id="f2xoKJOvEJa5iyCf3bkf-71" value="" style="shape=partialRectangle;connectable=0;fillColor=none;top=0;left=0;bottom=0;right=0;editable=1;overflow=hidden;whiteSpace=wrap;html=1;fontFamily=Helvetica;fontSize=12;verticalAlign=middle;align=center;horizontal=1;fontStyle=0" parent="f2xoKJOvEJa5iyCf3bkf-70" vertex="1">
          <mxGeometry width="30" height="30" as="geometry">
            <mxRectangle width="30" height="30" as="alternateBounds" />
          </mxGeometry>
        </mxCell>
        <mxCell id="f2xoKJOvEJa5iyCf3bkf-72" value="&lt;div style=&quot;font-size: 12px; line-height: 19px;&quot;&gt;&lt;span style=&quot;background-color: rgb(255, 255, 255); font-size: 12px;&quot;&gt;Indicator_Name&lt;/span&gt;&lt;/div&gt;" style="shape=partialRectangle;connectable=0;fillColor=none;top=0;left=0;bottom=0;right=0;align=center;spacingLeft=6;overflow=hidden;whiteSpace=wrap;html=1;fontFamily=Helvetica;fontSize=12;verticalAlign=middle;horizontal=1;fontStyle=0" parent="f2xoKJOvEJa5iyCf3bkf-70" vertex="1">
          <mxGeometry x="30" width="150" height="30" as="geometry">
            <mxRectangle width="150" height="30" as="alternateBounds" />
          </mxGeometry>
        </mxCell>
        <mxCell id="f2xoKJOvEJa5iyCf3bkf-73" value="" style="shape=tableRow;horizontal=1;startSize=0;swimlaneHead=0;swimlaneBody=0;fillColor=none;collapsible=0;dropTarget=0;points=[[0,0.5],[1,0.5]];portConstraint=eastwest;top=0;left=0;right=0;bottom=0;fontFamily=Helvetica;fontSize=12;verticalAlign=middle;align=center;fontStyle=0" parent="f2xoKJOvEJa5iyCf3bkf-63" vertex="1">
          <mxGeometry y="120" width="180" height="30" as="geometry" />
        </mxCell>
        <mxCell id="f2xoKJOvEJa5iyCf3bkf-74" value="" style="shape=partialRectangle;connectable=0;fillColor=none;top=0;left=0;bottom=0;right=0;editable=1;overflow=hidden;whiteSpace=wrap;html=1;fontFamily=Helvetica;fontSize=12;verticalAlign=middle;align=center;horizontal=1;fontStyle=0" parent="f2xoKJOvEJa5iyCf3bkf-73" vertex="1">
          <mxGeometry width="30" height="30" as="geometry">
            <mxRectangle width="30" height="30" as="alternateBounds" />
          </mxGeometry>
        </mxCell>
        <mxCell id="f2xoKJOvEJa5iyCf3bkf-75" value="&lt;div style=&quot;font-size: 12px; line-height: 19px;&quot;&gt;&lt;span style=&quot;background-color: rgb(255, 255, 255); font-size: 12px;&quot;&gt;Topic&lt;/span&gt;&lt;/div&gt;" style="shape=partialRectangle;connectable=0;fillColor=none;top=0;left=0;bottom=0;right=0;align=center;spacingLeft=6;overflow=hidden;whiteSpace=wrap;html=1;fontFamily=Helvetica;fontSize=12;verticalAlign=middle;horizontal=1;fontStyle=0" parent="f2xoKJOvEJa5iyCf3bkf-73" vertex="1">
          <mxGeometry x="30" width="150" height="30" as="geometry">
            <mxRectangle width="150" height="30" as="alternateBounds" />
          </mxGeometry>
        </mxCell>
        <mxCell id="f2xoKJOvEJa5iyCf3bkf-85" style="shape=tableRow;horizontal=1;startSize=0;swimlaneHead=0;swimlaneBody=0;fillColor=none;collapsible=0;dropTarget=0;points=[[0,0.5],[1,0.5]];portConstraint=eastwest;top=0;left=0;right=0;bottom=0;fontFamily=Helvetica;fontSize=12;verticalAlign=middle;align=center;fontStyle=0" parent="f2xoKJOvEJa5iyCf3bkf-63" vertex="1">
          <mxGeometry y="150" width="180" height="30" as="geometry" />
        </mxCell>
        <mxCell id="f2xoKJOvEJa5iyCf3bkf-86" style="shape=partialRectangle;connectable=0;fillColor=none;top=0;left=0;bottom=0;right=0;editable=1;overflow=hidden;whiteSpace=wrap;html=1;fontFamily=Helvetica;fontSize=12;verticalAlign=middle;align=center;horizontal=1;fontStyle=0" parent="f2xoKJOvEJa5iyCf3bkf-85" vertex="1">
          <mxGeometry width="30" height="30" as="geometry">
            <mxRectangle width="30" height="30" as="alternateBounds" />
          </mxGeometry>
        </mxCell>
        <mxCell id="f2xoKJOvEJa5iyCf3bkf-87" style="shape=partialRectangle;connectable=0;fillColor=none;top=0;left=0;bottom=0;right=0;align=center;spacingLeft=6;overflow=hidden;whiteSpace=wrap;html=1;fontFamily=Helvetica;fontSize=12;verticalAlign=middle;horizontal=1;fontStyle=0" parent="f2xoKJOvEJa5iyCf3bkf-85" vertex="1">
          <mxGeometry x="30" width="150" height="30" as="geometry">
            <mxRectangle width="150" height="30" as="alternateBounds" />
          </mxGeometry>
        </mxCell>
        <mxCell id="f2xoKJOvEJa5iyCf3bkf-108" value="&lt;div style=&quot;font-size: 12px; line-height: 19px;&quot;&gt;&lt;span style=&quot;background-color: rgb(255, 255, 255); font-size: 12px;&quot;&gt;year_2003&lt;/span&gt;&lt;/div&gt;" style="shape=partialRectangle;connectable=0;fillColor=none;top=0;left=0;bottom=0;right=0;align=center;spacingLeft=6;overflow=hidden;whiteSpace=wrap;html=1;fontFamily=Helvetica;fontSize=12;verticalAlign=middle;horizontal=1;fontStyle=0" parent="1" vertex="1">
          <mxGeometry x="334" y="300" width="150" height="30" as="geometry">
            <mxRectangle width="150" height="30" as="alternateBounds" />
          </mxGeometry>
        </mxCell>
        <mxCell id="f2xoKJOvEJa5iyCf3bkf-109" value="&lt;div style=&quot;font-size: 12px; line-height: 19px;&quot;&gt;&lt;span style=&quot;background-color: rgb(255, 255, 255); font-size: 12px;&quot;&gt;year_2007&lt;/span&gt;&lt;/div&gt;" style="shape=partialRectangle;connectable=0;fillColor=none;top=0;left=0;bottom=0;right=0;align=center;spacingLeft=6;overflow=hidden;whiteSpace=wrap;html=1;fontFamily=Helvetica;fontSize=12;verticalAlign=middle;horizontal=1;fontStyle=0" parent="1" vertex="1">
          <mxGeometry x="334" y="330" width="150" height="30" as="geometry">
            <mxRectangle width="150" height="30" as="alternateBounds" />
          </mxGeometry>
        </mxCell>
        <mxCell id="f2xoKJOvEJa5iyCf3bkf-110" value="&lt;div style=&quot;font-size: 12px; line-height: 19px;&quot;&gt;&lt;span style=&quot;background-color: rgb(255, 255, 255); font-size: 12px;&quot;&gt;year_2011&lt;/span&gt;&lt;/div&gt;" style="shape=partialRectangle;connectable=0;fillColor=none;top=0;left=0;bottom=0;right=0;align=center;spacingLeft=6;overflow=hidden;whiteSpace=wrap;html=1;fontFamily=Helvetica;fontSize=12;verticalAlign=middle;horizontal=1;fontStyle=0" parent="1" vertex="1">
          <mxGeometry x="334" y="360" width="150" height="30" as="geometry">
            <mxRectangle width="150" height="30" as="alternateBounds" />
          </mxGeometry>
        </mxCell>
        <mxCell id="f2xoKJOvEJa5iyCf3bkf-111" value="&lt;div style=&quot;font-size: 12px; line-height: 19px;&quot;&gt;&lt;span style=&quot;background-color: rgb(255, 255, 255); font-size: 12px;&quot;&gt;year_1999&lt;/span&gt;&lt;/div&gt;" style="shape=partialRectangle;connectable=0;fillColor=none;top=0;left=0;bottom=0;right=0;align=center;spacingLeft=6;overflow=hidden;whiteSpace=wrap;html=1;fontFamily=Helvetica;fontSize=12;verticalAlign=middle;horizontal=1;fontStyle=0" parent="1" vertex="1">
          <mxGeometry x="334" y="240" width="150" height="30" as="geometry">
            <mxRectangle width="150" height="30" as="alternateBounds" />
          </mxGeometry>
        </mxCell>
        <mxCell id="f2xoKJOvEJa5iyCf3bkf-112" value="&lt;div style=&quot;font-size: 12px; line-height: 19px;&quot;&gt;&lt;span style=&quot;background-color: rgb(255, 255, 255); font-size: 12px;&quot;&gt;year_1995&lt;/span&gt;&lt;/div&gt;" style="shape=partialRectangle;connectable=0;fillColor=none;top=0;left=0;bottom=0;right=0;align=center;spacingLeft=6;overflow=hidden;whiteSpace=wrap;html=1;fontFamily=Helvetica;fontSize=12;verticalAlign=middle;horizontal=1;fontStyle=0" parent="1" vertex="1">
          <mxGeometry x="334" y="270" width="150" height="30" as="geometry">
            <mxRectangle width="150" height="30" as="alternateBounds" />
          </mxGeometry>
        </mxCell>
        <mxCell id="f2xoKJOvEJa5iyCf3bkf-113" value="&lt;div style=&quot;font-size: 12px; line-height: 19px;&quot;&gt;&lt;span style=&quot;background-color: rgb(255, 255, 255); font-size: 12px;&quot;&gt;Series_Code&lt;/span&gt;&lt;/div&gt;" style="shape=partialRectangle;connectable=0;fillColor=none;top=0;left=0;bottom=0;right=0;align=center;spacingLeft=6;overflow=hidden;whiteSpace=wrap;html=1;fontFamily=Helvetica;fontSize=12;verticalAlign=middle;horizontal=1;fontStyle=0" parent="1" vertex="1">
          <mxGeometry x="334" y="210" width="150" height="30" as="geometry">
            <mxRectangle width="150" height="30" as="alternateBounds" />
          </mxGeometry>
        </mxCell>
        <mxCell id="f2xoKJOvEJa5iyCf3bkf-121" value="&lt;div style=&quot;font-size: 12px; line-height: 19px;&quot;&gt;&lt;div style=&quot;line-height: 19px; font-size: 12px;&quot;&gt;&lt;span style=&quot;background-color: rgb(255, 255, 255); font-size: 12px;&quot;&gt;year_2018&lt;/span&gt;&lt;/div&gt;&lt;/div&gt;" style="shape=partialRectangle;connectable=0;fillColor=none;top=0;left=0;bottom=0;right=0;align=center;spacingLeft=6;overflow=hidden;whiteSpace=wrap;html=1;fontFamily=Helvetica;fontSize=12;verticalAlign=middle;horizontal=1;fontStyle=0" parent="1" vertex="1">
          <mxGeometry x="334" y="420" width="150" height="30" as="geometry">
            <mxRectangle width="150" height="30" as="alternateBounds" />
          </mxGeometry>
        </mxCell>
        <mxCell id="f2xoKJOvEJa5iyCf3bkf-122" value="&lt;div style=&quot;font-size: 12px; line-height: 19px;&quot;&gt;&lt;div style=&quot;line-height: 19px; font-size: 12px;&quot;&gt;&lt;span style=&quot;background-color: rgb(255, 255, 255); font-size: 12px;&quot;&gt;year_2015&lt;/span&gt;&lt;/div&gt;&lt;/div&gt;" style="shape=partialRectangle;connectable=0;fillColor=none;top=0;left=0;bottom=0;right=0;align=center;spacingLeft=6;overflow=hidden;whiteSpace=wrap;html=1;fontFamily=Helvetica;fontSize=12;verticalAlign=middle;horizontal=1;fontStyle=0" parent="1" vertex="1">
          <mxGeometry x="334" y="390" width="150" height="30" as="geometry">
            <mxRectangle width="150" height="30" as="alternateBounds" />
          </mxGeometry>
        </mxCell>
        <mxCell id="f2xoKJOvEJa5iyCf3bkf-123" value="&lt;div style=&quot;font-size: 12px; line-height: 19px;&quot;&gt;&lt;span style=&quot;background-color: rgb(255, 255, 255); font-size: 12px;&quot;&gt;Long_definition&lt;/span&gt;&lt;/div&gt;" style="shape=partialRectangle;connectable=0;fillColor=none;top=0;left=0;bottom=0;right=0;align=center;spacingLeft=6;overflow=hidden;whiteSpace=wrap;html=1;fontFamily=Helvetica;fontSize=12;verticalAlign=middle;horizontal=1;fontStyle=0" parent="1" vertex="1">
          <mxGeometry x="622" y="214" width="150" height="30" as="geometry">
            <mxRectangle width="150" height="30" as="alternateBounds" />
          </mxGeometry>
        </mxCell>
        <mxCell id="f2xoKJOvEJa5iyCf3bkf-132" value="" style="endArrow=classic;html=1;rounded=0;edgeStyle=orthogonalEdgeStyle;entryX=0;entryY=0.5;entryDx=0;entryDy=0;" parent="1" target="f2xoKJOvEJa5iyCf3bkf-44" edge="1">
          <mxGeometry relative="1" as="geometry">
            <mxPoint x="244" y="112" as="sourcePoint" />
            <mxPoint x="288" y="432" as="targetPoint" />
            <Array as="points">
              <mxPoint x="289" y="112" />
              <mxPoint x="289" y="160" />
            </Array>
          </mxGeometry>
        </mxCell>
        <mxCell id="f2xoKJOvEJa5iyCf3bkf-137" value="" style="endArrow=classic;html=1;rounded=0;edgeStyle=orthogonalEdgeStyle;" parent="1" target="f2xoKJOvEJa5iyCf3bkf-70" edge="1">
          <mxGeometry relative="1" as="geometry">
            <mxPoint x="484" y="192.5" as="sourcePoint" />
            <mxPoint x="584" y="192.5" as="targetPoint" />
            <Array as="points">
              <mxPoint x="528" y="193" />
              <mxPoint x="528" y="169" />
            </Array>
          </mxGeometry>
        </mxCell>
      </root>
    </mxGraphModel>
  </diagram>
</mxfile>
